<svg xmlns="http://www.w3.org/2000/svg" xmlns:xlink="http://www.w3.org/1999/xlink" width="182" height="182.18072094642866" viewBox="0 0 182 182.18072094642866" fill="none"><defs><linearGradient id="linear_0" x1="-47.21135569630765%" y1="0.776305273504017%" x2="10.26785695263353%" y2="65.17305052047304%" gradientUnits="objectBoundingBox"><stop offset="0" stop-color="#FFFFFF" stop-opacity="0.47" /><stop offset="0.4232" stop-color="#FFFFFF" stop-opacity="0" /><stop offset="0.7094" stop-color="#FFFFFF" stop-opacity="0.65" /><stop offset="1" stop-color="#FFFFFF" stop-opacity="0.01" /></linearGradient><radialGradient id="linear_1" cx="16.563%" cy="56.779999999999994%" fx="16.563%" fy="56.779999999999994%" r="0.7276655069467014" gradientTransform="translate(0.16563 0.5678) scale(1.0071224685609423 1) rotate(354.6158737435267) scale(1 1) translate(-0.16563 -0.5678)" ><stop offset="0" stop-color="#1F5AF0" stop-opacity="0.128" /><stop offset="1" stop-color="#1F5AF0" stop-opacity="0.002" /></radialGradient><radialGradient id="linear_2" cx="-31.388235160724577%" cy="3.864332832394028%" fx="-31.388235160724577%" fy="3.864332832394028%" r="0.17926701829858774" gradientTransform="translate(-0.31388235160724576 0.03864332832394028) scale(1.0071224685609423 1) rotate(323.97114132207616) scale(1 1) translate(0.31388235160724576 -0.03864332832394028)" ><stop offset="0" stop-color="#FFFFFF" stop-opacity="0.384" /><stop offset="1" stop-color="#FFFFFF" stop-opacity="0" /></radialGradient><radialGradient id="linear_3" cx="62.26631639551133%" cy="22.736640770100806%" fx="62.26631639551133%" fy="22.736640770100806%" r="0.43549704386879007" gradientTransform="translate(0.6226631639551133 0.22736640770100805) scale(1.0071224685609423 1) rotate(30.541549069021073) scale(1 1) translate(-0.6226631639551133 -0.22736640770100805)" ><stop offset="0" stop-color="#1F5AF0" stop-opacity="0.18799999999999997" /><stop offset="1" stop-color="#1F5AF0" stop-opacity="0" /></radialGradient><radialGradient id="linear_4" cx="27.836225700788443%" cy="79.64849172823692%" fx="27.836225700788443%" fy="79.64849172823692%" r="0.7184572606440616" gradientTransform="translate(0.2783622570078844 0.7964849172823691) scale(1.0071224685609423 1) rotate(41.26331256623956) scale(1 0.81) translate(-0.2783622570078844 -0.7964849172823691)" ><stop offset="0" stop-color="#1F5AF0" stop-opacity="0.31200000000000006" /><stop offset="1" stop-color="#1F5AF0" stop-opacity="0.004" /></radialGradient><radialGradient id="linear_5" cx="76.37935357165495%" cy="51.94104046242774%" fx="76.37935357165495%" fy="51.94104046242774%" r="0.8340282109932409" gradientTransform="translate(0.7637935357165495 0.5194104046242775) scale(1.0071224685609423 1) rotate(38.92379727105691) scale(1 1) translate(-0.7637935357165495 -0.5194104046242775)" ><stop offset="0" stop-color="#00BAAE" stop-opacity="0.19140000000000001" /><stop offset="1" stop-color="#00BAAD" stop-opacity="0.0029" /></radialGradient><radialGradient id="linear_6" cx="95.10840290716077%" cy="50.3779457536683%" fx="95.10840290716077%" fy="50.3779457536683%" r="0.3054132771047443" gradientTransform="translate(0.9510840290716076 0.503779457536683) scale(1.0071224685609423 1) rotate(306.1832972978659) scale(1 0.59) translate(-0.9510840290716076 -0.503779457536683)" ><stop offset="0" stop-color="#1F5AF0" stop-opacity="0.128" /><stop offset="1" stop-color="#1F5AF0" stop-opacity="0" /></radialGradient><linearGradient id="linear_7" x1="-47.21135569630765%" y1="0.776305273504017%" x2="10.26785695263353%" y2="65.17305052047304%" gradientUnits="objectBoundingBox"><stop offset="0" stop-color="#FFFFFF" stop-opacity="0.47" /><stop offset="0.4232" stop-color="#FFFFFF" stop-opacity="0" /><stop offset="0.7094" stop-color="#FFFFFF" stop-opacity="0.65" /><stop offset="1" stop-color="#FFFFFF" stop-opacity="0.01" /></linearGradient><radialGradient id="linear_8" cx="16.563%" cy="56.779999999999994%" fx="16.563%" fy="56.779999999999994%" r="0.7276655069467014" gradientTransform="translate(0.16563 0.5678) scale(0.9908398629891101 1) rotate(354.70242206300935) scale(1 1) translate(-0.16563 -0.5678)" ><stop offset="0" stop-color="#1F5AF0" stop-opacity="0.128" /><stop offset="1" stop-color="#1F5AF0" stop-opacity="0.002" /></radialGradient><radialGradient id="linear_9" cx="-31.388235160724577%" cy="3.864332832394028%" fx="-31.388235160724577%" fy="3.864332832394028%" r="0.17926701829858774" gradientTransform="translate(-0.31388235160724576 0.03864332832394028) scale(0.9908398629891101 1) rotate(324.4142495931689) scale(1 1) translate(0.31388235160724576 -0.03864332832394028)" ><stop offset="0" stop-color="#FFFFFF" stop-opacity="0.384" /><stop offset="1" stop-color="#FFFFFF" stop-opacity="0" /></radialGradient><radialGradient id="linear_10" cx="62.26631639551133%" cy="22.736640770100806%" fx="62.26631639551133%" fy="22.736640770100806%" r="0.43549704386879007" gradientTransform="translate(0.6226631639551133 0.22736640770100805) scale(0.9908398629891101 1) rotate(30.134439143810255) scale(1 1) translate(-0.6226631639551133 -0.22736640770100805)" ><stop offset="0" stop-color="#1F5AF0" stop-opacity="0.18799999999999997" /><stop offset="1" stop-color="#1F5AF0" stop-opacity="0" /></radialGradient><radialGradient id="linear_11" cx="27.836225700788443%" cy="79.64849172823692%" fx="27.836225700788443%" fy="79.64849172823692%" r="0.7184572606440616" gradientTransform="translate(0.2783622570078844 0.7964849172823691) scale(0.9908398629891101 1) rotate(40.8008412576192) scale(1 0.81) translate(-0.2783622570078844 -0.7964849172823691)" ><stop offset="0" stop-color="#1F5AF0" stop-opacity="0.31200000000000006" /><stop offset="1" stop-color="#1F5AF0" stop-opacity="0.004" /></radialGradient><radialGradient id="linear_12" cx="76.37935357165495%" cy="51.94104046242774%" fx="76.37935357165495%" fy="51.94104046242774%" r="0.8340282109932409" gradientTransform="translate(0.7637935357165495 0.5194104046242775) scale(0.9908398629891101 1) rotate(38.468114209083865) scale(1 1) translate(-0.7637935357165495 -0.5194104046242775)" ><stop offset="0" stop-color="#00BAAE" stop-opacity="0.19140000000000001" /><stop offset="1" stop-color="#00BAAD" stop-opacity="0.0029" /></radialGradient><radialGradient id="linear_13" cx="95.10840290716077%" cy="50.3779457536683%" fx="95.10840290716077%" fy="50.3779457536683%" r="0.3054132771047443" gradientTransform="translate(0.9510840290716076 0.503779457536683) scale(0.9908398629891101 1) rotate(306.629388153179) scale(1 0.59) translate(-0.9510840290716076 -0.503779457536683)" ><stop offset="0" stop-color="#1F5AF0" stop-opacity="0.128" /><stop offset="1" stop-color="#1F5AF0" stop-opacity="0" /></radialGradient><linearGradient id="linear_14" x1="-47.21135569630765%" y1="0.776305273504017%" x2="10.26785695263353%" y2="65.17305052047304%" gradientUnits="objectBoundingBox"><stop offset="0" stop-color="#FFFFFF" stop-opacity="0.47" /><stop offset="0.4232" stop-color="#FFFFFF" stop-opacity="0" /><stop offset="0.7094" stop-color="#FFFFFF" stop-opacity="0.65" /><stop offset="1" stop-color="#FFFFFF" stop-opacity="0.01" /></linearGradient><radialGradient id="linear_15" cx="16.563%" cy="56.779999999999994%" fx="16.563%" fy="56.779999999999994%" r="0.7276655069467014" gradientTransform="translate(0.16563 0.5678) scale(0.9834328402147996 1) rotate(354.74180129021505) scale(1 1) translate(-0.16563 -0.5678)" ><stop offset="0" stop-color="#1F5AF0" stop-opacity="0.128" /><stop offset="1" stop-color="#1F5AF0" stop-opacity="0.002" /></radialGradient><radialGradient id="linear_16" cx="-31.388235160724577%" cy="3.864332832394028%" fx="-31.388235160724577%" fy="3.864332832394028%" r="0.17926701829858774" gradientTransform="translate(-0.31388235160724576 0.03864332832394028) scale(0.9834328402147996 1) rotate(324.6174606388304) scale(1 1) translate(0.31388235160724576 -0.03864332832394028)" ><stop offset="0" stop-color="#FFFFFF" stop-opacity="0.384" /><stop offset="1" stop-color="#FFFFFF" stop-opacity="0" /></radialGradient><radialGradient id="linear_17" cx="62.26631639551133%" cy="22.736640770100806%" fx="62.26631639551133%" fy="22.736640770100806%" r="0.43549704386879007" gradientTransform="translate(0.6226631639551133 0.22736640770100805) scale(0.9834328402147996 1) rotate(29.94812266068459) scale(1 1) translate(-0.6226631639551133 -0.22736640770100805)" ><stop offset="0" stop-color="#1F5AF0" stop-opacity="0.18799999999999997" /><stop offset="1" stop-color="#1F5AF0" stop-opacity="0" /></radialGradient><radialGradient id="linear_18" cx="27.836225700788443%" cy="79.64849172823692%" fx="27.836225700788443%" fy="79.64849172823692%" r="0.7184572606440616" gradientTransform="translate(0.2783622570078844 0.7964849172823691) scale(0.9834328402147996 1) rotate(40.58830304968188) scale(1 0.81) translate(-0.2783622570078844 -0.7964849172823691)" ><stop offset="0" stop-color="#1F5AF0" stop-opacity="0.31200000000000006" /><stop offset="1" stop-color="#1F5AF0" stop-opacity="0.004" /></radialGradient><radialGradient id="linear_19" cx="76.37935357165495%" cy="51.94104046242774%" fx="76.37935357165495%" fy="51.94104046242774%" r="0.8340282109932409" gradientTransform="translate(0.7637935357165495 0.5194104046242775) scale(0.9834328402147996 1) rotate(38.25889519398754) scale(1 1) translate(-0.7637935357165495 -0.5194104046242775)" ><stop offset="0" stop-color="#00BAAE" stop-opacity="0.19140000000000001" /><stop offset="1" stop-color="#00BAAD" stop-opacity="0.0029" /></radialGradient><radialGradient id="linear_20" cx="95.10840290716077%" cy="50.3779457536683%" fx="95.10840290716077%" fy="50.3779457536683%" r="0.3054132771047443" gradientTransform="translate(0.9510840290716076 0.503779457536683) scale(0.9834328402147996 1) rotate(306.8354597125787) scale(1 0.59) translate(-0.9510840290716076 -0.503779457536683)" ><stop offset="0" stop-color="#1F5AF0" stop-opacity="0.128" /><stop offset="1" stop-color="#1F5AF0" stop-opacity="0" /></radialGradient><linearGradient id="linear_21" x1="-47.21135569630765%" y1="0.776305273504017%" x2="10.26785695263353%" y2="65.17305052047304%" gradientUnits="objectBoundingBox"><stop offset="0" stop-color="#FFFFFF" stop-opacity="0.47" /><stop offset="0.4232" stop-color="#FFFFFF" stop-opacity="0" /><stop offset="0.7094" stop-color="#FFFFFF" stop-opacity="0.65" /><stop offset="1" stop-color="#FFFFFF" stop-opacity="0.01" /></linearGradient><radialGradient id="linear_22" cx="16.563%" cy="56.779999999999994%" fx="16.563%" fy="56.779999999999994%" r="0.7276655069467014" gradientTransform="translate(0.16563 0.5678) scale(1.132014306847331 1) rotate(353.95287303117846) scale(1 1) translate(-0.16563 -0.5678)" ><stop offset="0" stop-color="#1F5AF0" stop-opacity="0.128" /><stop offset="1" stop-color="#1F5AF0" stop-opacity="0.002" /></radialGradient><radialGradient id="linear_23" cx="-31.388235160724577%" cy="3.864332832394028%" fx="-31.388235160724577%" fy="3.864332832394028%" r="0.17926701829858774" gradientTransform="translate(-0.31388235160724576 0.03864332832394028) scale(1.132014306847331 1) rotate(320.7338179281303) scale(1 1) translate(0.31388235160724576 -0.03864332832394028)" ><stop offset="0" stop-color="#FFFFFF" stop-opacity="0.384" /><stop offset="1" stop-color="#FFFFFF" stop-opacity="0" /></radialGradient><radialGradient id="linear_24" cx="62.26631639551133%" cy="22.736640770100806%" fx="62.26631639551133%" fy="22.736640770100806%" r="0.43549704386879007" gradientTransform="translate(0.6226631639551133 0.22736640770100805) scale(1.132014306847331 1) rotate(33.551941219905075) scale(1 1) translate(-0.6226631639551133 -0.22736640770100805)" ><stop offset="0" stop-color="#1F5AF0" stop-opacity="0.18799999999999997" /><stop offset="1" stop-color="#1F5AF0" stop-opacity="0" /></radialGradient><radialGradient id="linear_25" cx="27.836225700788443%" cy="79.64849172823692%" fx="27.836225700788443%" fy="79.64849172823692%" r="0.7184572606440616" gradientTransform="translate(0.2783622570078844 0.7964849172823691) scale(1.132014306847331 1) rotate(44.60166282234644) scale(1 0.81) translate(-0.2783622570078844 -0.7964849172823691)" ><stop offset="0" stop-color="#1F5AF0" stop-opacity="0.31200000000000006" /><stop offset="1" stop-color="#1F5AF0" stop-opacity="0.004" /></radialGradient><radialGradient id="linear_26" cx="76.37935357165495%" cy="51.94104046242774%" fx="76.37935357165495%" fy="51.94104046242774%" r="0.8340282109932409" gradientTransform="translate(0.7637935357165495 0.5194104046242775) scale(1.132014306847331 1) rotate(42.23102038493073) scale(1 1) translate(-0.7637935357165495 -0.5194104046242775)" ><stop offset="0" stop-color="#00BAAE" stop-opacity="0.19140000000000001" /><stop offset="1" stop-color="#00BAAD" stop-opacity="0.0029" /></radialGradient><radialGradient id="linear_27" cx="95.10840290716077%" cy="50.3779457536683%" fx="95.10840290716077%" fy="50.3779457536683%" r="0.3054132771047443" gradientTransform="translate(0.9510840290716076 0.503779457536683) scale(1.132014306847331 1) rotate(303.05382217319186) scale(1 0.59) translate(-0.9510840290716076 -0.503779457536683)" ><stop offset="0" stop-color="#1F5AF0" stop-opacity="0.128" /><stop offset="1" stop-color="#1F5AF0" stop-opacity="0" /></radialGradient></defs><g opacity="1" transform="translate(0 0.09036047321433216)  rotate(0 91 91)"><rect fill="#FFFFFF" opacity="1" transform="translate(0 0)  rotate(0 91 91)" x="0" y="0" width="182" height="182" rx="200" /><g opacity="1" transform="translate(0.5538396570939312 -0.09036047321433216)  rotate(0 90.44616034290611 91.09036047321433)"><path id="减去顶层" fill-rule="evenodd" fill="url(#linear_0)" transform="translate(0 0.00000161251273311791)  rotate(0 90.44615973776774 91.09035966695797)" opacity="1" d="M0,91.09C0,141.4 40.49,182.18 90.45,182.18C140.4,182.18 180.89,141.4 180.89,91.09C180.89,40.78 140.4,0 90.45,0C40.49,0 0,40.78 0,91.09Z " /><path id="减去顶层" fill-rule="evenodd" fill="url(#linear_1)" transform="translate(0 0.00000161251273311791)  rotate(0 90.44615973776774 91.09035966695797)" opacity="1" d="M0,91.09C0,141.4 40.49,182.18 90.45,182.18C140.4,182.18 180.89,141.4 180.89,91.09C180.89,40.78 140.4,0 90.45,0C40.49,0 0,40.78 0,91.09Z " /><path id="减去顶层" fill-rule="evenodd" fill="url(#linear_2)" transform="translate(0 0.00000161251273311791)  rotate(0 90.44615973776774 91.09035966695797)" opacity="1" d="M0,91.09C0,141.4 40.49,182.18 90.45,182.18C140.4,182.18 180.89,141.4 180.89,91.09C180.89,40.78 140.4,0 90.45,0C40.49,0 0,40.78 0,91.09Z " /><path id="减去顶层" fill-rule="evenodd" fill="url(#linear_3)" transform="translate(0 0.00000161251273311791)  rotate(0 90.44615973776774 91.09035966695797)" opacity="1" d="M0,91.09C0,141.4 40.49,182.18 90.45,182.18C140.4,182.18 180.89,141.4 180.89,91.09C180.89,40.78 140.4,0 90.45,0C40.49,0 0,40.78 0,91.09Z " /><path id="减去顶层" fill-rule="evenodd" fill="url(#linear_4)" transform="translate(0 0.00000161251273311791)  rotate(0 90.44615973776774 91.09035966695797)" opacity="1" d="M0,91.09C0,141.4 40.49,182.18 90.45,182.18C140.4,182.18 180.89,141.4 180.89,91.09C180.89,40.78 140.4,0 90.45,0C40.49,0 0,40.78 0,91.09Z " /><path id="减去顶层" fill-rule="evenodd" fill="url(#linear_5)" transform="translate(0 0.00000161251273311791)  rotate(0 90.44615973776774 91.09035966695797)" opacity="1" d="M0,91.09C0,141.4 40.49,182.18 90.45,182.18C140.4,182.18 180.89,141.4 180.89,91.09C180.89,40.78 140.4,0 90.45,0C40.49,0 0,40.78 0,91.09Z " /><path id="减去顶层" fill-rule="evenodd" fill="url(#linear_6)" transform="translate(0 0.00000161251273311791)  rotate(0 90.44615973776774 91.09035966695797)" opacity="1" d="M0,91.09C0,141.4 40.49,182.18 90.45,182.18C140.4,182.18 180.89,141.4 180.89,91.09C180.89,40.78 140.4,0 90.45,0C40.49,0 0,40.78 0,91.09Z " /><path id="交集" fill-rule="evenodd" fill="url(#linear_7)" transform="translate(0.0000012102767641408718 0.0000015645168787159491)  rotate(0 90.44615973776773 89.61766052246094)" opacity="1" d="M63.5508 178.085C26.7297 166.552 0 131.967 0 91.09C0 40.78 40.49 0 90.45 0C140.4 0 180.89 40.78 180.89 91.09C180.89 97.2689 180.279 103.304 179.115 109.138C169.816 111.671 161.446 106.927 161.446 95.0025C161.446 74.3025 131.866 51.5325 97.0964 51.5325C65.7964 51.5325 39.1364 81.1125 39.1364 108.293C39.1364 147.082 57.8403 167.564 67.5472 179.235C66.2026 178.882 64.8702 178.498 63.5508 178.085Z " /><path id="交集" fill-rule="evenodd" fill="url(#linear_8)" transform="translate(0.0000012102767641408718 0.0000015645168787159491)  rotate(0 90.44615973776773 89.61766052246094)" opacity="1" d="M63.5508 178.085C26.7297 166.552 0 131.967 0 91.09C0 40.78 40.49 0 90.45 0C140.4 0 180.89 40.78 180.89 91.09C180.89 97.2689 180.279 103.304 179.115 109.138C169.816 111.671 161.446 106.927 161.446 95.0025C161.446 74.3025 131.866 51.5325 97.0964 51.5325C65.7964 51.5325 39.1364 81.1125 39.1364 108.293C39.1364 147.082 57.8403 167.564 67.5472 179.235C66.2026 178.882 64.8702 178.498 63.5508 178.085Z " /><path id="交集" fill-rule="evenodd" fill="url(#linear_9)" transform="translate(0.0000012102767641408718 0.0000015645168787159491)  rotate(0 90.44615973776773 89.61766052246094)" opacity="1" d="M63.5508 178.085C26.7297 166.552 0 131.967 0 91.09C0 40.78 40.49 0 90.45 0C140.4 0 180.89 40.78 180.89 91.09C180.89 97.2689 180.279 103.304 179.115 109.138C169.816 111.671 161.446 106.927 161.446 95.0025C161.446 74.3025 131.866 51.5325 97.0964 51.5325C65.7964 51.5325 39.1364 81.1125 39.1364 108.293C39.1364 147.082 57.8403 167.564 67.5472 179.235C66.2026 178.882 64.8702 178.498 63.5508 178.085Z " /><path id="交集" fill-rule="evenodd" fill="url(#linear_10)" transform="translate(0.0000012102767641408718 0.0000015645168787159491)  rotate(0 90.44615973776773 89.61766052246094)" opacity="1" d="M63.5508 178.085C26.7297 166.552 0 131.967 0 91.09C0 40.78 40.49 0 90.45 0C140.4 0 180.89 40.78 180.89 91.09C180.89 97.2689 180.279 103.304 179.115 109.138C169.816 111.671 161.446 106.927 161.446 95.0025C161.446 74.3025 131.866 51.5325 97.0964 51.5325C65.7964 51.5325 39.1364 81.1125 39.1364 108.293C39.1364 147.082 57.8403 167.564 67.5472 179.235C66.2026 178.882 64.8702 178.498 63.5508 178.085Z " /><path id="交集" fill-rule="evenodd" fill="url(#linear_11)" transform="translate(0.0000012102767641408718 0.0000015645168787159491)  rotate(0 90.44615973776773 89.61766052246094)" opacity="1" d="M63.5508 178.085C26.7297 166.552 0 131.967 0 91.09C0 40.78 40.49 0 90.45 0C140.4 0 180.89 40.78 180.89 91.09C180.89 97.2689 180.279 103.304 179.115 109.138C169.816 111.671 161.446 106.927 161.446 95.0025C161.446 74.3025 131.866 51.5325 97.0964 51.5325C65.7964 51.5325 39.1364 81.1125 39.1364 108.293C39.1364 147.082 57.8403 167.564 67.5472 179.235C66.2026 178.882 64.8702 178.498 63.5508 178.085Z " /><path id="交集" fill-rule="evenodd" fill="url(#linear_12)" transform="translate(0.0000012102767641408718 0.0000015645168787159491)  rotate(0 90.44615973776773 89.61766052246094)" opacity="1" d="M63.5508 178.085C26.7297 166.552 0 131.967 0 91.09C0 40.78 40.49 0 90.45 0C140.4 0 180.89 40.78 180.89 91.09C180.89 97.2689 180.279 103.304 179.115 109.138C169.816 111.671 161.446 106.927 161.446 95.0025C161.446 74.3025 131.866 51.5325 97.0964 51.5325C65.7964 51.5325 39.1364 81.1125 39.1364 108.293C39.1364 147.082 57.8403 167.564 67.5472 179.235C66.2026 178.882 64.8702 178.498 63.5508 178.085Z " /><path id="交集" fill-rule="evenodd" fill="url(#linear_13)" transform="translate(0.0000012102767641408718 0.0000015645168787159491)  rotate(0 90.44615973776773 89.61766052246094)" opacity="1" d="M63.5508 178.085C26.7297 166.552 0 131.967 0 91.09C0 40.78 40.49 0 90.45 0C140.4 0 180.89 40.78 180.89 91.09C180.89 97.2689 180.279 103.304 179.115 109.138C169.816 111.671 161.446 106.927 161.446 95.0025C161.446 74.3025 131.866 51.5325 97.0964 51.5325C65.7964 51.5325 39.1364 81.1125 39.1364 108.293C39.1364 147.082 57.8403 167.564 67.5472 179.235C66.2026 178.882 64.8702 178.498 63.5508 178.085Z " /><path id="交集" fill-rule="evenodd" fill="url(#linear_14)" transform="translate(7.499495495721931e-7 0)  rotate(0 90.44615936279297 88.94772338867188)" opacity="1" d="M50.7456 52.3132C74.8822 39.8162 113.5 50.0681 127.988 78.0499C144.09 109.149 137.566 146.072 119.184 155.59C108.593 161.074 108.257 170.743 114.818 177.895C120.536 176.254 126.178 174.026 131.665 171.185C176.341 148.053 193.805 93.0893 170.673 48.4126C162.825 33.2556 151.314 21.2307 137.783 12.8605C124.129 4.69357 108.158 0 91.09 0C40.78 0 0 40.78 0 91.09C0 97.0473 0.571791 102.871 1.66349 108.509C7.61654 94.113 17.746 69.3991 50.7456 52.3132Z " /><path id="交集" fill-rule="evenodd" fill="url(#linear_15)" transform="translate(7.499495495721931e-7 0)  rotate(0 90.44615936279297 88.94772338867188)" opacity="1" d="M50.7456 52.3132C74.8822 39.8162 113.5 50.0681 127.988 78.0499C144.09 109.149 137.566 146.072 119.184 155.59C108.593 161.074 108.257 170.743 114.818 177.895C120.536 176.254 126.178 174.026 131.665 171.185C176.341 148.053 193.805 93.0893 170.673 48.4126C162.825 33.2556 151.314 21.2307 137.783 12.8605C124.129 4.69357 108.158 0 91.09 0C40.78 0 0 40.78 0 91.09C0 97.0473 0.571791 102.871 1.66349 108.509C7.61654 94.113 17.746 69.3991 50.7456 52.3132Z " /><path id="交集" fill-rule="evenodd" fill="url(#linear_16)" transform="translate(7.499495495721931e-7 0)  rotate(0 90.44615936279297 88.94772338867188)" opacity="1" d="M50.7456 52.3132C74.8822 39.8162 113.5 50.0681 127.988 78.0499C144.09 109.149 137.566 146.072 119.184 155.59C108.593 161.074 108.257 170.743 114.818 177.895C120.536 176.254 126.178 174.026 131.665 171.185C176.341 148.053 193.805 93.0893 170.673 48.4126C162.825 33.2556 151.314 21.2307 137.783 12.8605C124.129 4.69357 108.158 0 91.09 0C40.78 0 0 40.78 0 91.09C0 97.0473 0.571791 102.871 1.66349 108.509C7.61654 94.113 17.746 69.3991 50.7456 52.3132Z " /><path id="交集" fill-rule="evenodd" fill="url(#linear_17)" transform="translate(7.499495495721931e-7 0)  rotate(0 90.44615936279297 88.94772338867188)" opacity="1" d="M50.7456 52.3132C74.8822 39.8162 113.5 50.0681 127.988 78.0499C144.09 109.149 137.566 146.072 119.184 155.59C108.593 161.074 108.257 170.743 114.818 177.895C120.536 176.254 126.178 174.026 131.665 171.185C176.341 148.053 193.805 93.0893 170.673 48.4126C162.825 33.2556 151.314 21.2307 137.783 12.8605C124.129 4.69357 108.158 0 91.09 0C40.78 0 0 40.78 0 91.09C0 97.0473 0.571791 102.871 1.66349 108.509C7.61654 94.113 17.746 69.3991 50.7456 52.3132Z " /><path id="交集" fill-rule="evenodd" fill="url(#linear_18)" transform="translate(7.499495495721931e-7 0)  rotate(0 90.44615936279297 88.94772338867188)" opacity="1" d="M50.7456 52.3132C74.8822 39.8162 113.5 50.0681 127.988 78.0499C144.09 109.149 137.566 146.072 119.184 155.59C108.593 161.074 108.257 170.743 114.818 177.895C120.536 176.254 126.178 174.026 131.665 171.185C176.341 148.053 193.805 93.0893 170.673 48.4126C162.825 33.2556 151.314 21.2307 137.783 12.8605C124.129 4.69357 108.158 0 91.09 0C40.78 0 0 40.78 0 91.09C0 97.0473 0.571791 102.871 1.66349 108.509C7.61654 94.113 17.746 69.3991 50.7456 52.3132Z " /><path id="交集" fill-rule="evenodd" fill="url(#linear_19)" transform="translate(7.499495495721931e-7 0)  rotate(0 90.44615936279297 88.94772338867188)" opacity="1" d="M50.7456 52.3132C74.8822 39.8162 113.5 50.0681 127.988 78.0499C144.09 109.149 137.566 146.072 119.184 155.59C108.593 161.074 108.257 170.743 114.818 177.895C120.536 176.254 126.178 174.026 131.665 171.185C176.341 148.053 193.805 93.0893 170.673 48.4126C162.825 33.2556 151.314 21.2307 137.783 12.8605C124.129 4.69357 108.158 0 91.09 0C40.78 0 0 40.78 0 91.09C0 97.0473 0.571791 102.871 1.66349 108.509C7.61654 94.113 17.746 69.3991 50.7456 52.3132Z " /><path id="交集" fill-rule="evenodd" fill="url(#linear_20)" transform="translate(7.499495495721931e-7 0)  rotate(0 90.44615936279297 88.94772338867188)" opacity="1" d="M50.7456 52.3132C74.8822 39.8162 113.5 50.0681 127.988 78.0499C144.09 109.149 137.566 146.072 119.184 155.59C108.593 161.074 108.257 170.743 114.818 177.895C120.536 176.254 126.178 174.026 131.665 171.185C176.341 148.053 193.805 93.0893 170.673 48.4126C162.825 33.2556 151.314 21.2307 137.783 12.8605C124.129 4.69357 108.158 0 91.09 0C40.78 0 0 40.78 0 91.09C0 97.0473 0.571791 102.871 1.66349 108.509C7.61654 94.113 17.746 69.3991 50.7456 52.3132Z " /><path id="交集" fill-rule="evenodd" fill="url(#linear_21)" transform="translate(20.148911230306226 0.0003612794707805733)  rotate(0 80.17162322998047 90.75542449951172)" opacity="1" d="M-7.12432e-08 148.237C5.54893 155.152 12.0833 161.235 19.3888 166.269C58.2235 192.1 110.919 184.576 140.504 147.667C171.808 108.615 165.369 51.4458 126.114 19.9796C111.401 8.18581 94.1667 1.67745 76.7201 0.205546C74.6917 0.0692441 72.645 0 70.5822 0C50.5309 0 32.0021 6.54261 16.9932 17.6196C17.0477 17.6184 17.1023 17.6172 17.1571 17.6159C32.7209 17.2645 59.2758 16.665 88.1631 39.8204C109.371 56.8201 115.739 96.1695 96.1251 120.639C74.3346 147.823 38.0297 156.709 21.8781 143.762C12.7509 136.446 3.967 139.749 -7.12432e-08 148.237Z " /><path id="交集" fill-rule="evenodd" fill="url(#linear_22)" transform="translate(20.148911230306226 0.0003612794707805733)  rotate(0 80.17162322998047 90.75542449951172)" opacity="1" d="M-7.12432e-08 148.237C5.54893 155.152 12.0833 161.235 19.3888 166.269C58.2235 192.1 110.919 184.576 140.504 147.667C171.808 108.615 165.369 51.4458 126.114 19.9796C111.401 8.18581 94.1667 1.67745 76.7201 0.205546C74.6917 0.0692441 72.645 0 70.5822 0C50.5309 0 32.0021 6.54261 16.9932 17.6196C17.0477 17.6184 17.1023 17.6172 17.1571 17.6159C32.7209 17.2645 59.2758 16.665 88.1631 39.8204C109.371 56.8201 115.739 96.1695 96.1251 120.639C74.3346 147.823 38.0297 156.709 21.8781 143.762C12.7509 136.446 3.967 139.749 -7.12432e-08 148.237Z " /><path id="交集" fill-rule="evenodd" fill="url(#linear_23)" transform="translate(20.148911230306226 0.0003612794707805733)  rotate(0 80.17162322998047 90.75542449951172)" opacity="1" d="M-7.12432e-08 148.237C5.54893 155.152 12.0833 161.235 19.3888 166.269C58.2235 192.1 110.919 184.576 140.504 147.667C171.808 108.615 165.369 51.4458 126.114 19.9796C111.401 8.18581 94.1667 1.67745 76.7201 0.205546C74.6917 0.0692441 72.645 0 70.5822 0C50.5309 0 32.0021 6.54261 16.9932 17.6196C17.0477 17.6184 17.1023 17.6172 17.1571 17.6159C32.7209 17.2645 59.2758 16.665 88.1631 39.8204C109.371 56.8201 115.739 96.1695 96.1251 120.639C74.3346 147.823 38.0297 156.709 21.8781 143.762C12.7509 136.446 3.967 139.749 -7.12432e-08 148.237Z " /><path id="交集" fill-rule="evenodd" fill="url(#linear_24)" transform="translate(20.148911230306226 0.0003612794707805733)  rotate(0 80.17162322998047 90.75542449951172)" opacity="1" d="M-7.12432e-08 148.237C5.54893 155.152 12.0833 161.235 19.3888 166.269C58.2235 192.1 110.919 184.576 140.504 147.667C171.808 108.615 165.369 51.4458 126.114 19.9796C111.401 8.18581 94.1667 1.67745 76.7201 0.205546C74.6917 0.0692441 72.645 0 70.5822 0C50.5309 0 32.0021 6.54261 16.9932 17.6196C17.0477 17.6184 17.1023 17.6172 17.1571 17.6159C32.7209 17.2645 59.2758 16.665 88.1631 39.8204C109.371 56.8201 115.739 96.1695 96.1251 120.639C74.3346 147.823 38.0297 156.709 21.8781 143.762C12.7509 136.446 3.967 139.749 -7.12432e-08 148.237Z " /><path id="交集" fill-rule="evenodd" fill="url(#linear_25)" transform="translate(20.148911230306226 0.0003612794707805733)  rotate(0 80.17162322998047 90.75542449951172)" opacity="1" d="M-7.12432e-08 148.237C5.54893 155.152 12.0833 161.235 19.3888 166.269C58.2235 192.1 110.919 184.576 140.504 147.667C171.808 108.615 165.369 51.4458 126.114 19.9796C111.401 8.18581 94.1667 1.67745 76.7201 0.205546C74.6917 0.0692441 72.645 0 70.5822 0C50.5309 0 32.0021 6.54261 16.9932 17.6196C17.0477 17.6184 17.1023 17.6172 17.1571 17.6159C32.7209 17.2645 59.2758 16.665 88.1631 39.8204C109.371 56.8201 115.739 96.1695 96.1251 120.639C74.3346 147.823 38.0297 156.709 21.8781 143.762C12.7509 136.446 3.967 139.749 -7.12432e-08 148.237Z " /><path id="交集" fill-rule="evenodd" fill="url(#linear_26)" transform="translate(20.148911230306226 0.0003612794707805733)  rotate(0 80.17162322998047 90.75542449951172)" opacity="1" d="M-7.12432e-08 148.237C5.54893 155.152 12.0833 161.235 19.3888 166.269C58.2235 192.1 110.919 184.576 140.504 147.667C171.808 108.615 165.369 51.4458 126.114 19.9796C111.401 8.18581 94.1667 1.67745 76.7201 0.205546C74.6917 0.0692441 72.645 0 70.5822 0C50.5309 0 32.0021 6.54261 16.9932 17.6196C17.0477 17.6184 17.1023 17.6172 17.1571 17.6159C32.7209 17.2645 59.2758 16.665 88.1631 39.8204C109.371 56.8201 115.739 96.1695 96.1251 120.639C74.3346 147.823 38.0297 156.709 21.8781 143.762C12.7509 136.446 3.967 139.749 -7.12432e-08 148.237Z " /><path id="交集" fill-rule="evenodd" fill="url(#linear_27)" transform="translate(20.148911230306226 0.0003612794707805733)  rotate(0 80.17162322998047 90.75542449951172)" opacity="1" d="M-7.12432e-08 148.237C5.54893 155.152 12.0833 161.235 19.3888 166.269C58.2235 192.1 110.919 184.576 140.504 147.667C171.808 108.615 165.369 51.4458 126.114 19.9796C111.401 8.18581 94.1667 1.67745 76.7201 0.205546C74.6917 0.0692441 72.645 0 70.5822 0C50.5309 0 32.0021 6.54261 16.9932 17.6196C17.0477 17.6184 17.1023 17.6172 17.1571 17.6159C32.7209 17.2645 59.2758 16.665 88.1631 39.8204C109.371 56.8201 115.739 96.1695 96.1251 120.639C74.3346 147.823 38.0297 156.709 21.8781 143.762C12.7509 136.446 3.967 139.749 -7.12432e-08 148.237Z " /></g></g></svg>